<svg xmlns="http://www.w3.org/2000/svg" viewBox="0 0 132 132"><defs><style>.cls-1{fill:#6c6c6c;fill-rule:evenodd;}</style></defs><title>Ресурс 7</title><g id="Слой_2" data-name="Слой 2"><g id="_1" data-name="1"><path class="cls-1" d="M9.6,0H122.4A9.6,9.6,0,0,1,132,9.6V122.4a9.6,9.6,0,0,1-9.6,9.6H9.6A9.6,9.6,0,0,1,0,122.4V9.6A9.6,9.6,0,0,1,9.6,0ZM83.7,30.6H74.5c-10.3,0-17,6.8-17,17.4v8H48.3a1.4,1.4,0,0,0-1.4,1.4V69.1a1.4,1.4,0,0,0,1.4,1.4h9.2V100a1.4,1.4,0,0,0,1.4,1.4H71a1.4,1.4,0,0,0,1.4-1.4V70.6H83.3a1.4,1.4,0,0,0,1.4-1.4V57.5a1.5,1.5,0,0,0-.4-1,1.4,1.4,0,0,0-1-.4H72.5V49.2c0-3.3.8-4.9,5-4.9h6.2a1.4,1.4,0,0,0,1.4-1.4V32A1.4,1.4,0,0,0,83.7,30.6Z"/></g></g></svg>