<svg xmlns="http://www.w3.org/2000/svg" viewBox="0 0 132 132"><defs><style>.cls-1{fill:#6c6c6c;fill-rule:evenodd;}</style></defs><title>Ресурс 3</title><g id="Слой_2" data-name="Слой 2"><g id="_1" data-name="1"><path class="cls-1" d="M9.6,0H122.4A9.6,9.6,0,0,1,132,9.6V122.4a9.6,9.6,0,0,1-9.6,9.6H9.6A9.6,9.6,0,0,1,0,122.4V9.6A9.6,9.6,0,0,1,9.6,0ZM62.3,81.4l-1,1L48.5,95.3a4.7,4.7,0,0,0-1.6,3.2,5.1,5.1,0,0,0,3,4.7,4.2,4.2,0,0,0,5.1-.9l10-10c.8-.8,1.3-1,2.2-.1,3.2,3.4,6.5,6.6,9.8,9.9a4.7,4.7,0,0,0,3,1.6,5.1,5.1,0,0,0,4.8-3,4.3,4.3,0,0,0-1-5.1l-13-13.1-1-1.1a38.9,38.9,0,0,0,9.4-2.1,23,23,0,0,0,8.2-5.3c1.5-1.6,1.5-3.5.3-5.5a4.3,4.3,0,0,0-5-2A7.7,7.7,0,0,0,80,67.9a25.6,25.6,0,0,1-28.3-.3l-1.3-.8a4.7,4.7,0,0,0-5.3,7.6l1.6,1.4c4.5,3.5,9.8,5,15.6,5.6Zm3.6-14.9A19,19,0,1,0,47,47.4,19,19,0,0,0,65.8,66.5Zm9.5-19.1A9.3,9.3,0,1,0,66,56.7,9.3,9.3,0,0,0,75.3,47.4Z"/></g></g></svg>