<svg xmlns="http://www.w3.org/2000/svg" viewBox="0 0 132 132"><defs><style>.cls-1{fill:#6c6c6c;fill-rule:evenodd;}</style></defs><title>Ресурс 5</title><g id="Слой_2" data-name="Слой 2"><g id="_1" data-name="1"><path class="cls-1" d="M9.6,0H122.4A9.6,9.6,0,0,1,132,9.6V122.4a9.6,9.6,0,0,1-9.6,9.6H9.6A9.6,9.6,0,0,1,0,122.4V9.6A9.6,9.6,0,0,1,9.6,0ZM31.2,64.7l16.6,6.2,6.4,20.7a2,2,0,0,0,3.1.9L66.6,85a2.8,2.8,0,0,1,3.4-.1L86.7,97a2,2,0,0,0,3.1-1.2L102,37a2,2,0,0,0-2.6-2.2L31.2,61.1a2,2,0,0,0,0,3.7Zm22,2.9a3.3,3.3,0,0,0-1.4,3.7l3.5,12.3a.8.8,0,0,0,1.6-.1l.9-6.8a5.6,5.6,0,0,1,1.7-3.3L86.4,48.5a.6.6,0,0,0-.7-.9Z"/></g></g></svg>