<svg xmlns="http://www.w3.org/2000/svg" viewBox="0 0 132 132"><defs><style>.cls-1{fill:#6c6c6c;fill-rule:evenodd;}</style></defs><title>Ресурс 8</title><g id="Слой_2" data-name="Слой 2"><g id="_1" data-name="1"><path class="cls-1" d="M9.6,0H122.4A9.6,9.6,0,0,1,132,9.6V122.4a9.6,9.6,0,0,1-9.6,9.6H9.6A9.6,9.6,0,0,1,0,122.4V9.6A9.6,9.6,0,0,1,9.6,0Zm91.9,44a29.2,29.2,0,0,1-8.4,2.3,14.7,14.7,0,0,0,6.4-8.1,29,29,0,0,1-9.3,3.5,14.6,14.6,0,0,0-25.2,10,15.2,15.2,0,0,0,.4,3.3,41.4,41.4,0,0,1-30-15.2,14.6,14.6,0,0,0,4.5,19.4,14.3,14.3,0,0,1-6.6-1.8v.2A14.6,14.6,0,0,0,45,71.9a15.1,15.1,0,0,1-3.8.5l-2.8-.3A14.6,14.6,0,0,0,52.1,82.3,29.3,29.3,0,0,1,34,88.5l-3.5-.2a41.2,41.2,0,0,0,22.3,6.5c26.8,0,41.4-22.2,41.4-41.4V51.5A29.4,29.4,0,0,0,101.5,44Z"/></g></g></svg>