<svg xmlns="http://www.w3.org/2000/svg" viewBox="0 0 132 132"><defs><style>.cls-1{fill:#6c6c6c;fill-rule:evenodd;}</style></defs><title>Ресурс 6</title><g id="Слой_2" data-name="Слой 2"><g id="_1" data-name="1"><path class="cls-1" d="M9.6,0H122.4A9.6,9.6,0,0,1,132,9.6V122.4a9.6,9.6,0,0,1-9.6,9.6H9.6A9.6,9.6,0,0,1,0,122.4V9.6A9.6,9.6,0,0,1,9.6,0Zm91.3,83.3-.3-.5q-2-3.5-7.5-8.7h-.2l-3.2-3.2a3,3,0,0,1-.6-3.2,29.6,29.6,0,0,1,3.5-5.1l2.5-3.3q6.8-9,5.9-11.5l-.2-.4a2.3,2.3,0,0,0-1.2-.6,6.1,6.1,0,0,0-2.5-.1H84.3l-.4.4-.4.7a64.2,64.2,0,0,1-4.2,8.8L76.6,61a20.5,20.5,0,0,1-2,2.6L73.1,65c-.4.3-.8.5-1,.4l-.7-.2a2.6,2.6,0,0,1-.9-1,4.3,4.3,0,0,1-.5-1.5q-.1-.9-.1-1.6c0-.4,0-1.1,0-1.9s0-1.4,0-1.6,0-2.1.1-3.2V51.7q0-1,0-2.2a9.1,9.1,0,0,0-.1-1.8,6.1,6.1,0,0,0-.4-1.3,2.1,2.1,0,0,0-.8-.9L67.5,45a26.4,26.4,0,0,0-5.3-.5H60.7q-6,0-7.9.9a5.3,5.3,0,0,0-1.5,1.2q-.7.9-.2.9a4.8,4.8,0,0,1,3.3,1.7l.2.5a7.4,7.4,0,0,1,.5,1.8,18.1,18.1,0,0,1,.4,2.9,30.3,30.3,0,0,1,0,4.9q-.2,2-.4,3.2a6.4,6.4,0,0,1-.5,1.8l-.5.9-.2.2-1.1.2a2.5,2.5,0,0,1-1.3-.6A9.4,9.4,0,0,1,50,63.5a20.2,20.2,0,0,1-1.9-2.7q-1.1-1.7-2.2-4.1l-.6-1.1-1.6-3.2q-1-2.1-1.8-4.1a2.6,2.6,0,0,0-.9-1.3h-.2l-.6-.3-.9-.3H28.4a2.7,2.7,0,0,0-2.2.7l-.2.2a1.3,1.3,0,0,0-.1.6h0a3.1,3.1,0,0,0,.2,1q2.4,5.5,5.1,10.7t4.8,8.3q2,3.1,4.2,5.9L43,77.6l1.1,1.2,1,.9A23,23,0,0,0,47.9,82l4,2.6a22,22,0,0,0,5.2,2.1,17.8,17.8,0,0,0,5.7.6h4.5a3.1,3.1,0,0,0,2.1-.9l.2-.2a2.6,2.6,0,0,0,.3-.7,4,4,0,0,0,.1-1.1,13,13,0,0,1,.3-3,8,8,0,0,1,.7-2,4.9,4.9,0,0,1,.8-1.2l.7-.6h.3a2.5,2.5,0,0,1,2.2.6,13.1,13.1,0,0,1,2.4,2.3l2.7,3a18.7,18.7,0,0,0,2.7,2.5l.8.5,2,.9a4.4,4.4,0,0,0,2.2.2l10-.2a4.5,4.5,0,0,0,2.3-.5,1.9,1.9,0,0,0,1-1.1,3.1,3.1,0,0,0,0-1.3A5.1,5.1,0,0,0,100.9,83.3Z"/></g></g></svg>