<svg xmlns="http://www.w3.org/2000/svg" viewBox="0 0 132 132"><defs><style>.cls-1{fill:#6c6c6c;fill-rule:evenodd;}</style></defs><title>Ресурс 4</title><g id="Слой_2" data-name="Слой 2"><g id="_1" data-name="1"><path class="cls-1" d="M9.6,0H122.4A9.6,9.6,0,0,1,132,9.6V122.4a9.6,9.6,0,0,1-9.6,9.6H9.6A9.6,9.6,0,0,1,0,122.4V9.6A9.6,9.6,0,0,1,9.6,0ZM56.9,79.7,79.7,66,56.9,52.3V79.7Zm42.6-34c-2-3.5-4.1-4.2-8.5-4.4s-15.4-.4-24.9-.4-20.6.1-24.9.4-6.5.9-8.5,4.4S29.4,55.3,29.4,66h0c0,10.6,1.1,16.8,3.1,20.2s4.2,4.2,8.5,4.5,15.4.4,24.9.4,20.5-.2,24.9-.4,6.5-.9,8.5-4.5,3.1-9.6,3.1-20.2h0C102.6,55.3,101.5,49.2,99.4,45.7Z"/></g></g></svg>